<svg id="play-button-svgrepo-com" xmlns="http://www.w3.org/2000/svg" width="29.5" height="29.5" viewBox="0 0 29.5 29.5">
  <path id="Path_3" data-name="Path 3" d="M33.585,21.461,22.768,14.086a.491.491,0,0,0-.768.406v14.75a.491.491,0,0,0,.768.406l10.817-7.375a.491.491,0,0,0,0-.812Zm-10.6,6.85V15.423l9.452,6.444Z" transform="translate(-11.183 -7.117)"/>
  <path id="Path_4" data-name="Path 4" d="M14.75,0A14.75,14.75,0,1,0,29.5,14.75,14.767,14.767,0,0,0,14.75,0Zm0,28.517A13.767,13.767,0,1,1,28.517,14.75,13.782,13.782,0,0,1,14.75,28.517Z"/>
</svg>
