<svg xmlns="http://www.w3.org/2000/svg" width="27.514" height="27.514" viewBox="0 0 27.514 27.514">
  <g id="settings" transform="translate(0 0)">
    <path id="Path_17" data-name="Path 17" d="M14.62,27.514H12.893a2.536,2.536,0,0,1-2.533-2.533V24.4a11.107,11.107,0,0,1-1.725-.716l-.414.414a2.533,2.533,0,0,1-3.582,0l-1.22-1.22a2.533,2.533,0,0,1,0-3.582l.414-.414a11.108,11.108,0,0,1-.716-1.725H2.533A2.536,2.536,0,0,1,0,14.62V12.893a2.536,2.536,0,0,1,2.533-2.533h.584a11.11,11.11,0,0,1,.716-1.725l-.414-.414a2.533,2.533,0,0,1,0-3.582L4.64,3.419a2.533,2.533,0,0,1,3.582,0l.414.414a11.118,11.118,0,0,1,1.725-.716V2.533A2.536,2.536,0,0,1,12.893,0H14.62a2.536,2.536,0,0,1,2.533,2.533v.584a11.107,11.107,0,0,1,1.725.716l.414-.414a2.533,2.533,0,0,1,3.582,0l1.22,1.22a2.533,2.533,0,0,1,0,3.582l-.414.414a11.109,11.109,0,0,1,.716,1.725h.584a2.536,2.536,0,0,1,2.533,2.533V14.62a2.536,2.536,0,0,1-2.533,2.533H24.4a11.111,11.111,0,0,1-.716,1.725l.414.414a2.533,2.533,0,0,1,0,3.582l-1.221,1.22a2.533,2.533,0,0,1-3.582,0l-.414-.414a11.118,11.118,0,0,1-1.725.716v.584A2.536,2.536,0,0,1,14.62,27.514ZM8.905,21.988a9.5,9.5,0,0,0,2.463,1.022.806.806,0,0,1,.6.78v1.19a.922.922,0,0,0,.921.921H14.62a.922.922,0,0,0,.921-.921v-1.19a.806.806,0,0,1,.6-.78,9.5,9.5,0,0,0,2.463-1.022.806.806,0,0,1,.98.124l.843.843a.92.92,0,0,0,1.3,0l1.221-1.221a.921.921,0,0,0,0-1.3l-.843-.843a.806.806,0,0,1-.124-.98,9.5,9.5,0,0,0,1.022-2.463.806.806,0,0,1,.78-.6h1.19a.922.922,0,0,0,.921-.921V12.893a.922.922,0,0,0-.921-.921h-1.19a.806.806,0,0,1-.78-.6,9.5,9.5,0,0,0-1.022-2.463.806.806,0,0,1,.124-.98l.843-.843a.92.92,0,0,0,0-1.3L21.734,4.559a.92.92,0,0,0-1.3,0l-.843.843a.806.806,0,0,1-.98.124A9.5,9.5,0,0,0,16.146,4.5a.806.806,0,0,1-.6-.78V2.533a.922.922,0,0,0-.921-.921H12.893a.922.922,0,0,0-.921.921v1.19a.806.806,0,0,1-.6.78A9.5,9.5,0,0,0,8.905,5.526a.806.806,0,0,1-.98-.124l-.843-.843a.92.92,0,0,0-1.3,0L4.559,5.78a.921.921,0,0,0,0,1.3l.843.843a.806.806,0,0,1,.124.98A9.5,9.5,0,0,0,4.5,11.368a.806.806,0,0,1-.78.6H2.533a.922.922,0,0,0-.921.921V14.62a.922.922,0,0,0,.921.921h1.19a.806.806,0,0,1,.78.6,9.5,9.5,0,0,0,1.022,2.463.806.806,0,0,1-.124.98l-.843.843a.92.92,0,0,0,0,1.3L5.78,22.955a.92.92,0,0,0,1.3,0l.843-.843a.81.81,0,0,1,.98-.124Z" transform="translate(0 0)"/>
    <path id="Path_18" data-name="Path 18" d="M150.586,156.573a5.986,5.986,0,1,1,5.986-5.986A5.993,5.993,0,0,1,150.586,156.573Zm0-10.361a4.374,4.374,0,1,0,4.374,4.374A4.379,4.379,0,0,0,150.586,146.212Z" transform="translate(-136.83 -136.83)"/>
  </g>
</svg>
